<svg xmlns="http://www.w3.org/2000/svg" width="784" height="412" viewBox="0 0 784 412" version="1.1"><path d="M 31.624 234.733 C 32.227 240.116, 32.681 238.072, 19.625 288.668 C 10.250 324.996, 7.100 335.476, 4.355 339.473 C 3.610 340.557, 3 341.795, 3 342.223 C 3 342.650, 8.512 343.001, 15.250 343.002 L 27.500 343.004 27.202 337.252 C 26.975 332.878, 28.117 326.827, 31.964 312 C 34.747 301.275, 38.882 285.075, 41.152 276 C 43.421 266.925, 45.571 259.168, 45.928 258.761 C 46.536 258.069, 53.132 276.628, 68.844 323.248 L 75.500 342.995 99.398 342.748 L 123.295 342.500 126.057 332 C 127.575 326.225, 133.358 303.973, 138.907 282.552 C 144.826 259.704, 150.238 240.952, 151.999 237.189 C 153.649 233.662, 155 230.601, 155 230.388 C 155 230.174, 149.647 230, 143.105 230 L 131.210 230 131.229 235.750 C 131.245 240.830, 123.987 271.408, 114.915 304.480 C 113.862 308.319, 113 312.481, 113 313.730 C 113 317.346, 111.304 316.369, 109.564 311.750 C 108.683 309.413, 102.005 290.175, 94.725 269 L 81.488 230.500 56.289 230.233 L 31.090 229.966 31.624 234.733 M 183.741 231.530 C 176.085 233.428, 172.948 235.156, 169.004 239.648 C 164.338 244.962, 162.691 249.236, 157.479 269.548 C 154.945 279.422, 151.590 292.450, 150.022 298.500 C 143.765 322.656, 143.853 327.963, 150.639 335.891 C 156.444 342.673, 158.735 343, 200.498 343 C 222.293 343, 238.971 342.568, 242.526 341.911 C 248.980 340.717, 256.536 337.284, 259.203 334.331 C 263.677 329.379, 267.838 316.172, 279.104 271.166 C 282.474 257.702, 283.155 253.518, 282.589 249.744 C 281.567 242.926, 276.603 236.052, 270.500 233 L 265.500 230.500 227.500 230.301 C 197.406 230.144, 188.302 230.399, 183.741 231.530 M 303.992 236.197 C 303.986 240.487, 302.411 248.568, 299.058 261.500 C 280.724 332.229, 280.622 332.586, 277.046 338.646 C 276.012 340.399, 275.429 342.095, 275.750 342.416 C 276.071 342.737, 287.171 342.999, 300.417 342.999 L 324.500 342.997 324.598 335.249 C 324.673 329.378, 325.793 323.501, 329.220 311 L 333.744 294.500 339.554 294.500 L 345.364 294.500 346.661 302 C 347.375 306.125, 349.430 316.925, 351.229 326 L 354.500 342.500 377.750 342.768 C 399.444 343.019, 403.400 342.601, 399.887 340.430 C 397.530 338.974, 395.032 330.828, 391.582 313.357 C 389.612 303.379, 388 294.941, 388 294.607 C 388 294.273, 390.155 294, 392.788 294 C 398.857 294, 405.849 290.556, 408.238 286.389 C 411.128 281.349, 416.980 257.236, 416.991 250.328 C 416.999 244.881, 416.613 243.647, 413.703 239.828 C 411.890 237.447, 408.403 234.375, 405.953 233 L 401.500 230.500 352.750 230.197 L 304 229.895 303.992 236.197 M 434.200 231.200 C 433.540 231.860, 433 232.881, 433 233.469 C 433 234.057, 431.616 237.833, 429.924 241.859 C 428.232 245.886, 427.024 249.358, 427.240 249.573 C 427.456 249.789, 429.175 249.523, 431.060 248.983 C 436.371 247.460, 461 247.696, 461 249.270 C 461 249.969, 460.120 253.714, 459.045 257.594 C 457.970 261.473, 454.109 276.314, 450.466 290.574 C 440.320 330.281, 440.352 330.178, 434.215 342.250 C 434.005 342.663, 445.008 343.001, 458.667 343.002 L 483.500 343.004 483.218 337.252 C 482.990 332.586, 484.974 323.665, 493.726 290 L 504.516 248.500 518.008 248.500 C 525.429 248.500, 532.896 248.859, 534.602 249.297 L 537.705 250.094 538.622 241.105 C 539.126 236.162, 539.380 231.641, 539.186 231.058 C 538.651 229.453, 435.808 229.592, 434.200 231.200 M 549.828 235.249 C 550.184 240.947, 549.428 244.227, 535.448 297.686 C 528.433 324.512, 525.370 334.102, 521.214 342.259 C 521.001 342.677, 543.191 342.902, 570.526 342.759 L 620.224 342.500 624.040 332.652 C 627.657 323.318, 627.743 322.844, 625.678 323.563 C 622.654 324.617, 572 325.340, 572 324.329 C 572 323.878, 573.641 317.095, 575.648 309.255 L 579.295 295 602.404 295 C 615.114 295, 626.926 295.405, 628.653 295.900 L 631.792 296.801 634.396 287.414 C 635.828 282.252, 637 277.459, 637 276.764 C 637.001 275.796, 633.897 275.560, 623.750 275.756 C 616.463 275.897, 604.762 276.122, 597.750 276.256 C 589.763 276.409, 584.992 276.126, 584.980 275.500 C 584.969 274.950, 586.415 268.538, 588.193 261.250 L 591.425 248 613.463 248.024 C 625.583 248.037, 637.300 248.511, 639.500 249.077 C 647.154 251.046, 646.741 251.636, 648.487 236.250 L 649.196 230 599.348 229.999 L 549.500 229.997 549.828 235.249 M 660.650 234.750 C 661.096 238.555, 659.878 244.670, 654.526 265.500 C 641.966 314.384, 637.034 332, 634.517 336.966 C 633.133 339.698, 632 342.173, 632 342.467 C 632 342.760, 642.978 343, 656.395 343 L 680.790 343 680.736 337.186 C 680.706 333.988, 681.930 326.226, 683.457 319.936 C 686.196 308.655, 686.307 308.428, 691.725 303.192 C 694.746 300.273, 697.409 298.075, 697.642 298.309 C 697.875 298.542, 701.352 308.581, 705.369 320.616 L 712.671 342.500 735.836 342.768 C 748.576 342.916, 759 342.771, 759 342.447 C 759 342.122, 757.852 339.897, 756.449 337.503 C 753.855 333.078, 733 272.163, 733 269.013 C 733 267.014, 764.289 239.271, 772.097 234.349 C 775.596 232.142, 776.838 230.875, 775.867 230.503 C 775.071 230.197, 767.276 230.071, 758.545 230.224 L 742.669 230.500 740.739 234 C 738.025 238.923, 736.280 240.682, 720.500 254.399 C 701.244 271.138, 696.061 275.394, 695.554 274.887 C 695.152 274.486, 696.574 268.855, 702.089 249 C 703.235 244.875, 705.259 239.326, 706.586 236.668 C 707.914 234.010, 709 231.423, 709 230.918 C 709 230.386, 698.723 230, 684.547 230 L 660.094 230 660.650 234.750 M 210.273 249.113 C 206.355 250.245, 205.814 251.197, 202.642 262.552 C 198.849 276.126, 188 318.983, 188 320.391 C 188 321.072, 189.590 322.388, 191.534 323.315 C 195.760 325.330, 215.355 325.707, 219.427 323.851 C 222.557 322.425, 223.633 319.529, 229.588 296.500 C 238.362 262.569, 240.757 252.499, 240.257 251.648 C 239.981 251.179, 238.250 250.167, 236.410 249.398 C 232.592 247.803, 215.454 247.616, 210.273 249.113 M 345.499 249.250 C 344.889 250.987, 339 273.859, 339 274.488 C 339 274.770, 345.075 275, 352.500 275 C 368.703 275, 368.701 275.001, 371.913 263.099 C 374.524 253.423, 374.363 250.985, 371 249.290 C 367.549 247.550, 346.107 247.517, 345.499 249.250 " stroke="none" fill="#ffffff" fill-rule="evenodd"/><path d="M 30.402 230.159 C 30.116 230.622, 30.177 231.477, 30.537 232.059 C 32.345 234.985, 30.097 246.195, 19.587 286.662 C 11.868 316.381, 7.121 332.799, 5.070 336.861 C 3.395 340.180, 2.356 343.095, 2.762 343.337 C 3.931 344.035, 20.841 344.120, 24.432 343.447 L 27.681 342.837 27.613 336.669 C 27.561 331.998, 29.680 322.245, 36.341 296.500 C 41.179 277.800, 45.391 261.621, 45.701 260.546 C 46.068 259.274, 48.282 264.514, 52.039 275.546 C 68.949 325.197, 74.644 341.620, 75.344 342.750 C 75.928 343.693, 81.447 343.976, 97.809 343.900 C 109.739 343.845, 120.625 343.490, 122 343.109 C 123.656 342.652, 124.607 341.587, 124.817 339.959 C 124.992 338.607, 127.306 329.175, 129.961 319 C 132.615 308.825, 138.232 287.235, 142.442 271.022 C 147.512 251.497, 151.092 239.706, 153.045 236.101 C 154.666 233.108, 155.732 230.398, 155.414 230.079 C 155.096 229.761, 149.361 229.500, 142.668 229.500 L 130.500 229.500 130.819 234.500 C 131.056 238.219, 129.200 247.056, 123.574 269 C 111.841 314.767, 111.709 315.236, 110.960 313.821 C 109.828 311.681, 83 233.304, 83 232.136 C 83 229.366, 78.408 228.869, 54.899 229.091 C 41.711 229.216, 30.687 229.697, 30.402 230.159 M 193 229.651 C 181.021 230.786, 172.919 233.941, 168.466 239.206 C 163.660 244.889, 161.372 251.592, 153.003 284.500 C 145.993 312.066, 144.914 317.429, 145.213 323.207 C 145.657 331.787, 149.176 337.330, 156.507 341 L 161.500 343.500 201 343.500 C 236.898 343.500, 241.075 343.327, 246.802 341.604 C 259.856 337.675, 263.293 332.806, 269.888 308.899 C 284.109 257.340, 285.175 249.672, 279.418 240.356 C 275.299 233.688, 270.327 231.122, 259.280 229.959 C 251.223 229.112, 201.158 228.879, 193 229.651 M 303.810 229.520 C 303.430 229.902, 303.362 232.303, 303.659 234.857 C 304.090 238.566, 302.658 245.434, 296.540 269 C 292.328 285.225, 287.113 305.315, 284.950 313.645 C 280.879 329.328, 278.003 337.234, 275.268 340.256 C 274.394 341.222, 274.013 342.347, 274.422 342.756 C 274.830 343.165, 286.377 343.653, 300.082 343.840 L 325 344.179 325.002 336.840 C 325.003 331.309, 326.112 325.347, 329.502 312.651 C 331.976 303.385, 334 295.622, 334 295.401 C 334 295.181, 336.396 295, 339.324 295 L 344.649 295 348.412 314.750 C 350.482 325.613, 352.716 336.525, 353.376 339 L 354.575 343.500 377.705 343.500 C 390.426 343.500, 401.174 343.161, 401.588 342.746 C 402.002 342.331, 401.421 340.981, 400.296 339.746 C 399.170 338.511, 397.782 336.588, 397.209 335.473 C 396.370 333.840, 389 298.329, 389 295.921 C 389 295.556, 391.315 294.951, 394.145 294.575 C 401.531 293.595, 406.605 290.694, 408.941 286.115 C 411.436 281.225, 418 255.321, 418 250.367 C 418 242.525, 411.402 233.887, 403.211 231.007 C 400.433 230.029, 387.560 229.591, 352 229.264 C 325.875 229.023, 304.189 229.138, 303.810 229.520 M 435.666 229.894 C 434.256 230.425, 429.276 240.542, 426.007 249.518 C 426.003 249.528, 433.934 249.363, 443.631 249.152 C 453.690 248.933, 461.027 249.147, 460.716 249.651 C 460.415 250.137, 455.614 268.302, 450.045 290.017 C 442.897 317.891, 438.946 331.462, 436.606 336.171 C 433.359 342.706, 433.334 342.854, 435.395 343.408 C 438.153 344.148, 479.869 344.142, 482.630 343.401 C 484.515 342.895, 484.650 342.464, 483.801 339.665 C 483.067 337.243, 483.412 334.035, 485.272 326 C 487.485 316.441, 503.550 253.300, 504.563 250.178 C 504.901 249.139, 508.153 248.933, 519.746 249.214 C 527.861 249.411, 535.255 249.929, 536.177 250.365 C 537.572 251.025, 537.956 250.431, 538.460 246.829 C 538.794 244.448, 539.164 239.575, 539.283 236 L 539.500 229.500 488.500 229.351 C 460.450 229.270, 436.675 229.514, 435.666 229.894 M 549.440 230.097 C 549.108 230.634, 549.122 232.763, 549.471 234.827 C 550.119 238.666, 548.352 246.207, 533.066 304.836 C 527.467 326.310, 524.134 336.561, 521.717 339.737 C 521.200 340.418, 521.031 341.639, 521.343 342.451 C 521.831 343.724, 528.563 343.931, 570.205 343.958 C 596.767 343.975, 618.999 343.654, 619.609 343.245 C 620.220 342.835, 622.377 338.450, 624.403 333.500 C 626.429 328.550, 628.368 323.865, 628.712 323.089 C 629.204 321.979, 628.823 321.857, 626.919 322.516 C 625.588 322.977, 612.913 323.527, 598.750 323.739 C 577.971 324.049, 573.004 323.870, 573.020 322.811 C 573.031 322.090, 574.563 315.650, 576.424 308.500 L 579.809 295.500 603.654 295.500 C 621.074 295.500, 628.097 295.842, 629.717 296.768 C 631.834 297.978, 632 297.798, 633.394 292.768 C 634.197 289.870, 635.579 284.897, 636.465 281.716 C 637.351 278.534, 637.840 275.550, 637.552 275.084 C 637.264 274.618, 635.109 274.644, 632.764 275.142 C 630.419 275.640, 618.770 275.924, 606.877 275.774 L 585.254 275.500 588.442 262.500 L 591.631 249.500 614.565 249.211 C 629.924 249.018, 638.913 249.311, 641.779 250.099 C 644.132 250.746, 646.309 251.024, 646.617 250.717 C 647.410 249.924, 649.998 230.805, 649.435 229.895 C 648.721 228.739, 550.156 228.938, 549.440 230.097 M 661.940 229.758 C 659.472 230.084, 659.394 230.304, 659.794 235.830 C 660.147 240.702, 658.538 247.970, 649.093 284.190 C 637.337 329.267, 636.090 333.488, 632.952 338.806 C 631.866 340.647, 631.234 342.569, 631.547 343.077 C 632.177 344.095, 673.886 344.373, 678.792 343.392 C 681.789 342.792, 681.826 342.708, 681.356 337.642 C 681.013 333.945, 681.734 329.128, 683.924 320.500 C 686.897 308.787, 687.094 308.381, 692.157 303.515 C 695.992 299.829, 697.482 298.917, 697.874 300.015 C 698.166 300.832, 701.576 310.950, 705.452 322.500 L 712.500 343.500 731.500 343.803 C 741.950 343.970, 752.905 343.820, 755.846 343.469 L 761.191 342.832 759.212 340.666 C 758.124 339.475, 756.506 337.059, 755.615 335.297 C 754.105 332.307, 733.019 270.311, 733.006 268.820 C 732.994 267.493, 767.404 237.875, 772.631 234.713 C 775.553 232.946, 777.956 231.208, 777.972 230.851 C 778.015 229.865, 769.908 229.350, 755.574 229.429 L 742.647 229.500 739.502 234.851 C 736.465 240.018, 732.092 244.119, 705.644 266.595 C 700.773 270.734, 696.623 273.957, 696.423 273.756 C 695.612 272.945, 704.281 243.063, 707.056 237.101 C 708.694 233.581, 709.789 230.455, 709.488 230.155 C 708.895 229.561, 666.128 229.204, 661.940 229.758 M 209.093 250.265 C 207.720 250.969, 206.085 253.219, 205.287 255.500 C 203.124 261.684, 189 317.378, 189 319.724 C 189 322.826, 193.691 324, 206.084 324 C 217.707 324, 221.322 323.188, 222.442 320.327 C 223.245 318.271, 238.445 260.242, 239.461 255.347 C 240.554 250.086, 237.814 248.997, 223.527 249.015 C 215.976 249.024, 210.604 249.489, 209.093 250.265 M 346 249.483 C 346 249.749, 344.650 254.932, 343 261 C 341.350 267.068, 340 272.737, 340 273.596 C 340 274.950, 341.747 275.115, 353.091 274.829 C 368.720 274.436, 368.625 274.503, 371.862 261.595 C 374.410 251.436, 374.356 252.499, 372.429 250.571 C 371.169 249.311, 368.394 249, 358.429 249 C 351.593 249, 346 249.217, 346 249.483 " stroke="none" fill="#000000" fill-rule="evenodd"/><path d="M 481.234 34.750 L 481.500 62.500 487.500 63.167 C 498.280 64.365, 526.259 67.894, 537.424 69.464 C 543.432 70.309, 548.727 71, 549.191 71 C 549.654 71, 549.913 59.188, 549.767 44.750 L 549.500 18.500 546.500 18.180 C 544.850 18.004, 533.600 16.062, 521.500 13.865 C 489.971 8.140, 483.660 7.039, 482.234 7.018 C 481.237 7.004, 481.025 12.884, 481.234 34.750 M 562 46.791 L 562 72.804 568.250 73.499 C 571.688 73.881, 586.859 75.725, 601.963 77.597 C 617.068 79.469, 629.781 81, 630.213 81 C 631.464 81, 631.188 34.234, 629.933 33.459 C 629.346 33.096, 615.509 30.420, 599.183 27.512 C 582.857 24.604, 567.813 21.899, 565.750 21.501 L 562 20.777 562 46.791 M 642.785 59.499 C 642.942 72.425, 643.392 82.999, 643.785 82.999 C 644.178 82.998, 651.475 83.893, 660 84.987 C 684.818 88.174, 708.461 91, 710.300 91 C 711.847 91, 712 89.066, 712 69.469 C 712 53.155, 711.697 47.826, 710.750 47.478 C 708.616 46.694, 647.126 36, 644.747 35.999 L 642.500 35.998 642.785 59.499 M 481.234 105.750 L 481.500 133.500 501.500 134.665 C 512.500 135.305, 527.920 136.163, 535.767 136.571 L 550.034 137.312 549.767 111.411 L 549.500 85.511 518.500 81.821 C 501.450 79.792, 486.030 78.102, 484.234 78.066 L 480.968 78 481.234 105.750 M 562 112.481 L 562 137.962 564.250 138.436 C 566.377 138.885, 616.360 142.061, 626 142.360 L 630.500 142.500 630.792 121.500 C 630.953 109.950, 630.838 99.133, 630.537 97.463 L 629.989 94.426 603.745 91.621 C 589.310 90.078, 574.800 88.411, 571.500 87.916 C 560.930 86.329, 562 83.563, 562 112.481 M 642.393 97.582 C 642.727 98.452, 643 109.186, 643 121.436 L 643 143.708 655.750 144.467 C 697.471 146.951, 710.581 147.613, 711.250 147.268 C 712.219 146.769, 712.205 105.850, 711.235 104.407 C 710.831 103.805, 703.075 102.552, 694 101.623 C 684.925 100.693, 669.850 99.058, 660.500 97.991 C 651.150 96.923, 643.114 96.038, 642.643 96.025 C 642.172 96.011, 642.059 96.712, 642.393 97.582 M 481.234 175.770 L 481.500 203.500 515.500 203.500 L 549.500 203.500 549.767 177.250 L 550.033 151 546.193 151 C 544.081 151, 534.286 150.575, 524.426 150.055 C 514.567 149.536, 500.755 148.870, 493.734 148.575 L 480.968 148.040 481.234 175.770 M 562 178.030 L 562 204.061 596.250 203.780 L 630.500 203.500 630.500 179.500 L 630.500 155.500 601.500 153.836 C 585.550 152.921, 570.138 152.134, 567.250 152.086 L 562 152 562 178.030 M 643 179.925 L 643 204 676.883 204 L 710.767 204 711.370 201.750 C 711.701 200.512, 711.979 190.387, 711.986 179.250 L 712 159 707.750 158.994 C 701.806 158.987, 662.314 157.201, 651.750 156.462 L 643 155.850 643 179.925 " stroke="none" fill="#3e831e" fill-rule="evenodd"/><path d="M 447 17.097 C 436.825 22.571, 424.788 28.939, 420.250 31.248 L 412 35.446 412 59.223 C 412 72.300, 412.164 83, 412.366 83 C 412.980 83, 466.348 62.986, 466.717 62.617 C 467.629 61.704, 467.416 7.006, 466.500 7.072 C 465.950 7.112, 457.175 11.623, 447 17.097 M 376.750 54.110 L 350 68.161 350 85.499 C 350 95.034, 349.727 103.548, 349.393 104.418 C 348.968 105.526, 349.368 106, 350.727 106 C 351.795 106, 364.331 101.555, 378.584 96.122 L 404.500 86.244 404.768 63.122 C 404.916 50.405, 404.691 40.013, 404.268 40.030 C 403.846 40.046, 391.462 46.382, 376.750 54.110 M 446.320 84.468 C 436.322 87.945, 424.501 92.001, 420.053 93.482 L 411.964 96.176 412.232 119.838 L 412.500 143.500 415.500 143.176 C 417.150 142.998, 423.900 141.789, 430.500 140.489 C 445.625 137.510, 457.285 135.341, 462.750 134.488 L 467 133.824 467 105.912 C 467 84.210, 466.722 78.016, 465.750 78.074 C 465.063 78.115, 456.319 80.992, 446.320 84.468 M 376.808 107.860 C 362.678 112.640, 350.892 116.775, 350.618 117.049 C 350.344 117.323, 350.033 125.862, 349.927 136.024 C 349.738 154.116, 349.778 154.507, 351.840 154.816 C 352.999 154.990, 360.596 153.789, 368.723 152.148 C 376.850 150.507, 387.775 148.409, 393 147.485 C 398.225 146.561, 403.063 145.638, 403.750 145.434 C 404.703 145.151, 405 139.592, 405 122.031 C 405 104.228, 404.716 99.019, 403.750 99.085 C 403.063 99.131, 390.939 103.080, 376.808 107.860 M 437.500 152.069 C 423.750 154.199, 412.379 155.955, 412.232 155.971 C 412.084 155.987, 412.084 166.688, 412.232 179.750 L 412.500 203.500 439.750 203.766 L 467 204.032 467 176.016 L 467 148 464.750 148.097 C 463.512 148.151, 451.250 149.938, 437.500 152.069 M 398 158.075 C 394.975 158.454, 383.140 160.167, 371.700 161.882 C 360.259 163.597, 350.697 165, 350.450 165 C 350.202 165, 350 173.775, 350 184.500 L 350 204 377.500 204 L 405 204 405 181.059 C 405 168.441, 404.663 157.953, 404.250 157.752 C 403.837 157.550, 401.025 157.695, 398 158.075 " stroke="none" fill="#96cf47" fill-rule="evenodd"/></svg>