<svg xmlns="http://www.w3.org/2000/svg" width="784" height="412" viewBox="0 0 784 412" version="1.1"><path d="M 31.624 234.733 C 32.227 240.116, 32.681 238.072, 19.625 288.668 C 10.250 324.996, 7.100 335.476, 4.355 339.473 C 3.610 340.557, 3 341.795, 3 342.223 C 3 342.650, 8.512 343.001, 15.250 343.002 L 27.500 343.004 27.202 337.252 C 26.975 332.878, 28.117 326.827, 31.964 312 C 34.747 301.275, 38.882 285.075, 41.152 276 C 43.421 266.925, 45.571 259.168, 45.928 258.761 C 46.536 258.069, 53.132 276.628, 68.844 323.248 L 75.500 342.995 99.398 342.748 L 123.295 342.500 126.057 332 C 127.575 326.225, 133.358 303.973, 138.907 282.552 C 144.826 259.704, 150.238 240.952, 151.999 237.189 C 153.649 233.662, 155 230.601, 155 230.388 C 155 230.174, 149.647 230, 143.105 230 L 131.210 230 131.229 235.750 C 131.245 240.830, 123.987 271.408, 114.915 304.480 C 113.862 308.319, 113 312.481, 113 313.730 C 113 317.346, 111.304 316.369, 109.564 311.750 C 108.683 309.413, 102.005 290.175, 94.725 269 L 81.488 230.500 56.289 230.233 L 31.090 229.966 31.624 234.733 M 183.741 231.530 C 176.085 233.428, 172.948 235.156, 169.004 239.648 C 164.338 244.962, 162.691 249.236, 157.479 269.548 C 154.945 279.422, 151.590 292.450, 150.022 298.500 C 143.765 322.656, 143.853 327.963, 150.639 335.891 C 156.444 342.673, 158.735 343, 200.498 343 C 222.293 343, 238.971 342.568, 242.526 341.911 C 248.980 340.717, 256.536 337.284, 259.203 334.331 C 263.677 329.379, 267.838 316.172, 279.104 271.166 C 282.474 257.702, 283.155 253.518, 282.589 249.744 C 281.567 242.926, 276.603 236.052, 270.500 233 L 265.500 230.500 227.500 230.301 C 197.406 230.144, 188.302 230.399, 183.741 231.530 M 303.992 236.197 C 303.986 240.487, 302.411 248.568, 299.058 261.500 C 280.724 332.229, 280.622 332.586, 277.046 338.646 C 276.012 340.399, 275.429 342.095, 275.750 342.416 C 276.071 342.737, 287.171 342.999, 300.417 342.999 L 324.500 342.997 324.598 335.249 C 324.673 329.378, 325.793 323.501, 329.220 311 L 333.744 294.500 339.554 294.500 L 345.364 294.500 346.661 302 C 347.375 306.125, 349.430 316.925, 351.229 326 L 354.500 342.500 377.750 342.768 C 399.444 343.019, 403.400 342.601, 399.887 340.430 C 397.530 338.974, 395.032 330.828, 391.582 313.357 C 389.612 303.379, 388 294.941, 388 294.607 C 388 294.273, 390.155 294, 392.788 294 C 398.857 294, 405.849 290.556, 408.238 286.389 C 411.128 281.349, 416.980 257.236, 416.991 250.328 C 416.999 244.881, 416.613 243.647, 413.703 239.828 C 411.890 237.447, 408.403 234.375, 405.953 233 L 401.500 230.500 352.750 230.197 L 304 229.895 303.992 236.197 M 434.200 231.200 C 433.540 231.860, 433 232.881, 433 233.469 C 433 234.057, 431.616 237.833, 429.924 241.859 C 428.232 245.886, 427.024 249.358, 427.240 249.573 C 427.456 249.789, 429.175 249.523, 431.060 248.983 C 436.371 247.460, 461 247.696, 461 249.270 C 461 249.969, 460.120 253.714, 459.045 257.594 C 457.970 261.473, 454.109 276.314, 450.466 290.574 C 440.320 330.281, 440.352 330.178, 434.215 342.250 C 434.005 342.663, 445.008 343.001, 458.667 343.002 L 483.500 343.004 483.218 337.252 C 482.990 332.586, 484.974 323.665, 493.726 290 L 504.516 248.500 518.008 248.500 C 525.429 248.500, 532.896 248.859, 534.602 249.297 L 537.705 250.094 538.622 241.105 C 539.126 236.162, 539.380 231.641, 539.186 231.058 C 538.651 229.453, 435.808 229.592, 434.200 231.200 M 549.828 235.249 C 550.184 240.947, 549.428 244.227, 535.448 297.686 C 528.433 324.512, 525.370 334.102, 521.214 342.259 C 521.001 342.677, 543.191 342.902, 570.526 342.759 L 620.224 342.500 624.040 332.652 C 627.657 323.318, 627.743 322.844, 625.678 323.563 C 622.654 324.617, 572 325.340, 572 324.329 C 572 323.878, 573.641 317.095, 575.648 309.255 L 579.295 295 602.404 295 C 615.114 295, 626.926 295.405, 628.653 295.900 L 631.792 296.801 634.396 287.414 C 635.828 282.252, 637 277.459, 637 276.764 C 637.001 275.796, 633.897 275.560, 623.750 275.756 C 616.463 275.897, 604.762 276.122, 597.750 276.256 C 589.763 276.409, 584.992 276.126, 584.980 275.500 C 584.969 274.950, 586.415 268.538, 588.193 261.250 L 591.425 248 613.463 248.024 C 625.583 248.037, 637.300 248.511, 639.500 249.077 C 647.154 251.046, 646.741 251.636, 648.487 236.250 L 649.196 230 599.348 229.999 L 549.500 229.997 549.828 235.249 M 660.650 234.750 C 661.096 238.555, 659.878 244.670, 654.526 265.500 C 641.966 314.384, 637.034 332, 634.517 336.966 C 633.133 339.698, 632 342.173, 632 342.467 C 632 342.760, 642.978 343, 656.395 343 L 680.790 343 680.736 337.186 C 680.706 333.988, 681.930 326.226, 683.457 319.936 C 686.196 308.655, 686.307 308.428, 691.725 303.192 C 694.746 300.273, 697.409 298.075, 697.642 298.309 C 697.875 298.542, 701.352 308.581, 705.369 320.616 L 712.671 342.500 735.836 342.768 C 748.576 342.916, 759 342.771, 759 342.447 C 759 342.122, 757.852 339.897, 756.449 337.503 C 753.855 333.078, 733 272.163, 733 269.013 C 733 267.014, 764.289 239.271, 772.097 234.349 C 775.596 232.142, 776.838 230.875, 775.867 230.503 C 775.071 230.197, 767.276 230.071, 758.545 230.224 L 742.669 230.500 740.739 234 C 738.025 238.923, 736.280 240.682, 720.500 254.399 C 701.244 271.138, 696.061 275.394, 695.554 274.887 C 695.152 274.486, 696.574 268.855, 702.089 249 C 703.235 244.875, 705.259 239.326, 706.586 236.668 C 707.914 234.010, 709 231.423, 709 230.918 C 709 230.386, 698.723 230, 684.547 230 L 660.094 230 660.650 234.750 M 210.273 249.113 C 206.355 250.245, 205.814 251.197, 202.642 262.552 C 198.849 276.126, 188 318.983, 188 320.391 C 188 321.072, 189.590 322.388, 191.534 323.315 C 195.760 325.330, 215.355 325.707, 219.427 323.851 C 222.557 322.425, 223.633 319.529, 229.588 296.500 C 238.362 262.569, 240.757 252.499, 240.257 251.648 C 239.981 251.179, 238.250 250.167, 236.410 249.398 C 232.592 247.803, 215.454 247.616, 210.273 249.113 M 345.499 249.250 C 344.889 250.987, 339 273.859, 339 274.488 C 339 274.770, 345.075 275, 352.500 275 C 368.703 275, 368.701 275.001, 371.913 263.099 C 374.524 253.423, 374.363 250.985, 371 249.290 C 367.549 247.550, 346.107 247.517, 345.499 249.250 M 313.566 384.500 C 312.670 387.824, 312.934 393, 314 393 C 314.550 393, 315 390.975, 315 388.500 L 315 384 328.667 384 C 336.183 384, 342.024 383.691, 341.647 383.313 C 341.269 382.936, 334.918 382.598, 327.533 382.563 C 314.924 382.504, 314.073 382.622, 313.566 384.500 M 382.500 382.999 L 376.500 383.664 383.716 383.832 L 390.932 384 391.254 394.750 L 391.575 405.500 391.788 394.750 L 392 384 398.667 384 C 402.333 384, 405.146 383.837, 404.917 383.637 C 403.990 382.831, 388.106 382.378, 382.500 382.999 M 414.055 383 C 412.405 384.104, 411.364 395.121, 412.271 401.876 L 412.724 405.251 427.008 405.146 C 434.864 405.089, 441.526 404.807, 441.813 404.521 C 442.099 404.234, 436.011 404, 428.283 404 L 414.233 404 413.709 401.256 C 413.420 399.746, 413.394 398.171, 413.651 397.756 C 413.908 397.340, 418.816 397, 424.559 397 C 430.853 397, 435 396.603, 435 396 C 435 395.394, 430.698 395, 424.095 395 L 413.190 395 413.677 390.750 C 413.945 388.413, 414.338 385.938, 414.551 385.250 C 414.836 384.327, 418.650 384, 429.135 384 C 436.944 384, 443.101 383.768, 442.818 383.485 C 442.141 382.808, 415.025 382.351, 414.055 383 M 450.415 382.917 C 450.187 383.146, 450 386.318, 450 389.967 C 450 393.615, 449.511 397.089, 448.913 397.687 C 448.130 398.470, 448.130 398.962, 448.913 399.446 C 449.511 399.816, 450.053 401.329, 450.118 402.809 C 450.236 405.475, 450.243 405.472, 450.876 402.500 L 451.516 399.500 461.677 399.216 L 471.838 398.932 475.419 402.619 C 477.626 404.892, 479 405.732, 479 404.808 C 479 403.984, 478.111 402.505, 477.024 401.521 C 475.062 399.746, 475.067 399.709, 477.631 396.661 C 479.863 394.010, 480.131 392.975, 479.598 389.086 C 479.259 386.608, 478.621 384.221, 478.181 383.781 C 477.369 382.969, 451.175 382.153, 450.415 382.917 M 491 382.904 L 485.500 383.566 491.397 384.033 C 494.640 384.290, 500.040 384.231, 503.397 383.902 C 506.754 383.574, 508.150 383.231, 506.500 383.141 C 504.850 383.052, 501.925 382.812, 500 382.609 C 498.075 382.407, 494.025 382.539, 491 382.904 M 531.500 382.726 C 515.583 383.082, 515 383.483, 515 394.072 C 515 399.831, 515.349 401.247, 517.189 402.961 C 519.709 405.309, 518.731 405.191, 535 405.118 C 547.167 405.064, 547.560 404.994, 549.750 402.476 C 551.548 400.408, 552 398.678, 552 393.867 C 552 388.546, 551.660 387.507, 549.077 384.923 C 547.469 383.315, 545.782 382.098, 545.327 382.217 C 544.872 382.337, 538.650 382.566, 531.500 382.726 M 560.768 383.144 C 559.559 383.890, 558.224 396.480, 558.816 401.550 C 559.318 405.847, 561 406.108, 561 401.889 L 561 398.779 572.126 399.160 L 583.253 399.540 586.126 402.982 C 589.497 407.019, 590.055 405.611, 586.750 401.409 C 585.513 399.836, 584.612 398.374, 584.748 398.161 C 584.885 397.947, 579.598 397.847, 572.998 397.938 L 561 398.103 561 391.023 L 561 383.942 574.250 384.221 L 587.500 384.500 587.493 390.670 C 587.488 395.511, 587.758 396.616, 588.743 395.798 C 590.394 394.428, 590.359 386.873, 588.692 384.593 C 587.565 383.052, 585.617 382.784, 574.598 382.652 C 567.565 382.569, 561.342 382.790, 560.768 383.144 M 600.701 382.799 C 597.694 383.058, 596.699 383.662, 595.926 385.695 C 594.731 388.837, 595.525 391.676, 597.963 392.980 C 600.255 394.207, 621.199 394.130, 620.437 392.898 C 620.132 392.404, 614.734 392, 608.441 392 L 597 392 597 388.607 C 597 386.435, 597.569 384.995, 598.582 384.607 C 599.452 384.273, 605.316 384, 611.613 384 C 620.868 384, 623.173 384.288, 623.638 385.500 C 623.955 386.325, 624.716 387, 625.329 387 C 625.943 387, 625.544 386.100, 624.444 385 C 622.791 383.346, 620.889 382.954, 613.472 382.736 C 608.537 382.591, 602.791 382.619, 600.701 382.799 M 693.500 383.018 L 686.500 383.647 693.750 383.823 L 701 384 701 395.059 C 701 402.177, 701.356 405.898, 702 405.500 C 702.563 405.152, 703 400.323, 703 394.441 L 703 384 709.667 384 C 713.333 384, 716.146 383.838, 715.917 383.640 C 714.995 382.842, 700.063 382.428, 693.500 383.018 M 732.750 382.782 L 721 383.063 721 394.032 L 721 405 733.750 404.985 C 740.763 404.976, 746.995 404.639, 747.600 404.235 C 749.838 402.740, 750.999 398.977, 750.968 393.316 C 750.915 383.535, 748.941 382.394, 732.750 382.782 M 352.043 387.637 C 354.769 390.187, 357 392.984, 357 393.852 C 357 394.721, 354.879 397.584, 352.288 400.216 C 349.696 402.847, 348.027 405, 348.579 405 C 349.132 405, 351.571 402.975, 354 400.500 C 356.429 398.025, 358.850 396, 359.380 396 C 359.909 396, 362.283 398.025, 364.655 400.500 C 367.026 402.975, 369.536 404.986, 370.233 404.968 C 370.930 404.951, 370.375 403.904, 369 402.642 C 367.625 401.379, 365.172 398.912, 363.549 397.159 L 360.598 393.970 366.015 388.485 C 368.994 385.468, 370.978 383, 370.424 383 C 369.870 383, 367.429 385.025, 365 387.500 C 362.571 389.975, 360.096 392, 359.500 392 C 358.904 392, 356.429 389.975, 354 387.500 C 351.571 385.025, 349.022 383, 348.335 383 C 347.648 383, 349.316 385.087, 352.043 387.637 M 658.999 394.250 L 658.999 405.500 668.249 405.216 C 682.232 404.788, 683.776 404.317, 671.750 404.150 L 661 404 661 393.500 C 661 387.167, 660.603 383, 660 383 C 659.393 383, 659 387.417, 658.999 394.250 M 451.423 385.339 C 451.128 386.109, 451.024 389.160, 451.193 392.119 L 451.500 397.500 463.788 397.500 C 477.901 397.500, 478.168 397.347, 477.760 389.500 L 477.500 384.500 464.730 384.220 C 454.520 383.996, 451.853 384.220, 451.423 385.339 M 518.515 385.366 C 517.155 386.360, 516.528 388.379, 516.208 392.796 C 515.812 398.278, 516.017 399.108, 518.339 401.430 C 520.827 403.918, 521.312 404, 533.500 404 C 545.535 404, 546.199 403.892, 548.545 401.545 C 550.509 399.582, 551 398.072, 551 394 C 551 389.928, 550.509 388.418, 548.545 386.455 C 546.194 384.103, 545.551 384, 533.237 384 C 523.951 384, 519.864 384.379, 518.515 385.366 M 722.667 384.667 C 722.300 385.033, 722 389.533, 722 394.667 L 722 404 733.389 404 C 747.996 404, 749.500 403.084, 749.500 394.193 C 749.500 384.815, 748.301 384, 734.512 384 C 728.364 384, 723.033 384.300, 722.667 384.667 M 497.349 394 C 497.349 398.675, 497.522 400.587, 497.732 398.250 C 497.943 395.913, 497.943 392.087, 497.732 389.750 C 497.522 387.413, 497.349 389.325, 497.349 394 M 312.064 394.934 C 310.996 395.614, 310.911 396.188, 311.730 397.175 C 312.336 397.905, 313.012 400.077, 313.232 402.001 L 313.633 405.500 327.482 405.251 C 335.099 405.114, 341.557 404.777, 341.832 404.501 C 342.108 404.226, 336.183 404, 328.667 404 C 315.861 404, 315 403.879, 315 402.082 C 315 401.027, 314.727 399.452, 314.393 398.582 C 313.863 397.201, 315.126 397, 324.334 397 C 330.287 397, 335.151 396.564, 335.500 396 C 335.896 395.359, 332.538 395, 326.141 395 C 320.653 395, 315.564 394.780, 314.832 394.511 C 314.099 394.241, 312.854 394.432, 312.064 394.934 M 623.437 396.264 C 624.653 398.120, 624.698 398.975, 623.683 401.014 C 622.492 403.406, 622.030 403.511, 611.517 403.786 C 601.777 404.041, 600.284 403.847, 597.794 402.006 C 594.792 399.786, 594.405 400.019, 596.035 403.066 C 596.979 404.829, 598.245 405, 610.375 405 C 623.661 405, 623.681 404.997, 624.839 402.453 C 626.327 399.189, 626.313 396.713, 624.800 395.200 C 622.770 393.170, 621.870 393.872, 623.437 396.264 M 491.500 404.050 C 487.727 404.530, 489.179 404.724, 497.417 404.843 C 503.421 404.929, 508.146 404.837, 507.917 404.638 C 506.998 403.840, 496.194 403.453, 491.500 404.050" stroke="none" fill="#000000" fill-rule="evenodd"/><path d="M 0 206.001 L 0 412.003 392.250 411.751 L 784.500 411.500 784.752 205.750 L 785.005 -0 392.502 -0 L 0 0 0 206.001 M 0.491 206.500 C 0.491 319.800, 0.607 366.002, 0.750 309.170 C 0.893 252.339, 0.893 159.639, 0.750 103.170 C 0.607 46.702, 0.491 93.200, 0.491 206.500 M 480.970 6.731 C 480.821 10.590, 481.114 62.447, 481.286 62.619 C 481.649 62.982, 546.261 71, 548.821 71 L 551.137 71 550.964 46.750 C 550.869 33.413, 550.576 21.533, 550.313 20.351 C 549.936 18.659, 548.841 18.062, 545.167 17.541 C 542.600 17.178, 537.125 16.246, 533 15.470 C 528.875 14.694, 516.500 12.467, 505.500 10.521 C 494.500 8.575, 484.488 6.754, 483.250 6.473 C 482.012 6.192, 480.987 6.308, 480.970 6.731 M 447 17.097 C 436.825 22.571, 424.788 28.939, 420.250 31.248 L 412 35.446 412 59.223 C 412 72.300, 412.164 83, 412.366 83 C 412.980 83, 466.348 62.986, 466.717 62.617 C 467.629 61.704, 467.416 7.006, 466.500 7.072 C 465.950 7.112, 457.175 11.623, 447 17.097 M 561 46.860 C 561 61.237, 561.337 73.018, 561.750 73.041 C 562.163 73.063, 577.740 74.988, 596.367 77.318 C 618.785 80.122, 630.370 81.200, 630.636 80.507 C 630.857 79.930, 630.917 68.898, 630.769 55.990 L 630.500 32.522 601 27.263 C 584.775 24.371, 569.138 21.715, 566.250 21.362 L 561 20.720 561 46.860 M 642 58.921 L 642 82.841 644.750 83.399 C 647.375 83.931, 691.470 89.371, 703 90.585 C 706.025 90.903, 709.288 91.382, 710.250 91.649 C 711.879 92.101, 712 90.582, 712 69.638 L 712 47.142 706.750 46.086 C 703.862 45.506, 694.975 43.920, 687 42.562 C 679.025 41.204, 665.986 38.947, 658.025 37.546 C 650.064 36.146, 643.202 35, 642.775 35 C 642.349 35, 642 45.764, 642 58.921 M 376.750 54.110 L 350 68.161 350 85.499 C 350 95.034, 349.727 103.548, 349.393 104.418 C 348.968 105.526, 349.368 106, 350.727 106 C 351.795 106, 364.331 101.555, 378.584 96.122 L 404.500 86.244 404.768 63.122 C 404.916 50.405, 404.691 40.013, 404.268 40.030 C 403.846 40.046, 391.462 46.382, 376.750 54.110 M 480.681 77.957 C 480.581 78.256, 480.626 90.935, 480.780 106.133 L 481.061 133.765 491.780 134.425 C 497.676 134.788, 508.800 135.509, 516.500 136.028 C 524.200 136.547, 535 137.091, 540.500 137.236 L 550.500 137.500 550.756 111.813 C 550.897 97.685, 550.646 85.899, 550.198 85.623 C 549.346 85.096, 502.179 79.346, 488.681 78.123 C 484.380 77.734, 480.780 77.659, 480.681 77.957 M 446.320 84.468 C 436.322 87.945, 424.501 92.001, 420.053 93.482 L 411.964 96.176 412.232 119.838 L 412.500 143.500 415.500 143.176 C 417.150 142.998, 423.900 141.789, 430.500 140.489 C 445.625 137.510, 457.285 135.341, 462.750 134.488 L 467 133.824 467 105.912 C 467 84.210, 466.722 78.016, 465.750 78.074 C 465.063 78.115, 456.319 80.992, 446.320 84.468 M 561 112.531 C 561 132.053, 561.294 138.167, 562.250 138.507 C 562.938 138.752, 574.075 139.631, 587 140.461 C 599.925 141.290, 615.112 142.269, 620.750 142.635 L 631 143.301 631 118.650 C 631 101.509, 630.668 94, 629.909 94 C 628.862 94, 593.789 90.106, 575.932 88.007 C 571.220 87.453, 565.933 87, 564.182 87 L 561 87 561 112.531 M 642 119.882 L 642 143.763 650.250 144.416 C 661.330 145.291, 705.798 147.990, 709.250 147.995 L 712 148 712 125.500 C 712 113.125, 711.663 102.999, 711.250 102.998 C 710.031 102.995, 683.854 100.180, 665 98.025 C 655.375 96.925, 646.263 96.019, 644.750 96.012 L 642 96 642 119.882 M 376.808 107.860 C 362.678 112.640, 350.892 116.775, 350.618 117.049 C 350.344 117.323, 350.033 125.862, 349.927 136.024 C 349.738 154.116, 349.778 154.507, 351.840 154.816 C 352.999 154.990, 360.596 153.789, 368.723 152.148 C 376.850 150.507, 387.775 148.409, 393 147.485 C 398.225 146.561, 403.063 145.638, 403.750 145.434 C 404.703 145.151, 405 139.592, 405 122.031 C 405 104.228, 404.716 99.019, 403.750 99.085 C 403.063 99.131, 390.939 103.080, 376.808 107.860 M 481 175.402 L 481 204.026 515.750 203.763 L 550.500 203.500 550.818 189.500 C 550.993 181.800, 550.836 170.014, 550.471 163.310 L 549.806 151.120 544.653 150.568 C 541.819 150.264, 527.800 149.544, 513.500 148.967 C 499.200 148.390, 486.038 147.661, 484.250 147.348 L 481 146.777 481 175.402 M 437.500 152.069 C 423.750 154.199, 412.379 155.955, 412.232 155.971 C 412.084 155.987, 412.084 166.688, 412.232 179.750 L 412.500 203.500 439.750 203.766 L 467 204.032 467 176.016 L 467 148 464.750 148.097 C 463.512 148.151, 451.250 149.938, 437.500 152.069 M 561.937 152.039 C 561.337 152.410, 561.067 162.384, 561.232 178.070 L 561.500 203.500 596.250 203.763 L 631 204.026 631 179.642 L 631 155.258 622.250 154.648 C 617.438 154.312, 603.825 153.566, 592 152.989 C 580.175 152.412, 568.792 151.827, 566.704 151.689 C 564.617 151.551, 562.471 151.709, 561.937 152.039 M 642 180 L 642 204 677 204 L 712 204 712 181.585 L 712 159.171 704.750 158.617 C 696.059 157.954, 652.265 155.992, 646.250 155.997 L 642 156 642 180 M 398 158.075 C 394.975 158.454, 383.140 160.167, 371.700 161.882 C 360.259 163.597, 350.697 165, 350.450 165 C 350.202 165, 350 173.775, 350 184.500 L 350 204 377.500 204 L 405 204 405 181.059 C 405 168.441, 404.663 157.953, 404.250 157.752 C 403.837 157.550, 401.025 157.695, 398 158.075 M 30.402 230.159 C 30.116 230.622, 30.177 231.477, 30.537 232.059 C 32.345 234.985, 30.097 246.195, 19.587 286.662 C 11.868 316.381, 7.121 332.799, 5.070 336.861 C 3.395 340.180, 2.356 343.095, 2.762 343.337 C 3.931 344.035, 20.841 344.120, 24.432 343.447 L 27.681 342.837 27.613 336.669 C 27.561 331.998, 29.680 322.245, 36.341 296.500 C 41.179 277.800, 45.391 261.621, 45.701 260.546 C 46.068 259.274, 48.282 264.514, 52.039 275.546 C 68.949 325.197, 74.644 341.620, 75.344 342.750 C 75.928 343.693, 81.447 343.976, 97.809 343.900 C 109.739 343.845, 120.625 343.490, 122 343.109 C 123.656 342.652, 124.607 341.587, 124.817 339.959 C 124.992 338.607, 127.306 329.175, 129.961 319 C 132.615 308.825, 138.232 287.235, 142.442 271.022 C 147.512 251.497, 151.092 239.706, 153.045 236.101 C 154.666 233.108, 155.732 230.398, 155.414 230.079 C 155.096 229.761, 149.361 229.500, 142.668 229.500 L 130.500 229.500 130.819 234.500 C 131.056 238.219, 129.200 247.056, 123.574 269 C 111.841 314.767, 111.709 315.236, 110.960 313.821 C 109.828 311.681, 83 233.304, 83 232.136 C 83 229.366, 78.408 228.869, 54.899 229.091 C 41.711 229.216, 30.687 229.697, 30.402 230.159 M 193 229.651 C 181.021 230.786, 172.919 233.941, 168.466 239.206 C 163.660 244.889, 161.372 251.592, 153.003 284.500 C 145.993 312.066, 144.914 317.429, 145.213 323.207 C 145.657 331.787, 149.176 337.330, 156.507 341 L 161.500 343.500 201 343.500 C 236.898 343.500, 241.075 343.327, 246.802 341.604 C 259.856 337.675, 263.293 332.806, 269.888 308.899 C 284.109 257.340, 285.175 249.672, 279.418 240.356 C 275.299 233.688, 270.327 231.122, 259.280 229.959 C 251.223 229.112, 201.158 228.879, 193 229.651 M 303.810 229.520 C 303.430 229.902, 303.362 232.303, 303.659 234.857 C 304.090 238.566, 302.658 245.434, 296.540 269 C 292.328 285.225, 287.113 305.315, 284.950 313.645 C 280.879 329.328, 278.003 337.234, 275.268 340.256 C 274.394 341.222, 274.013 342.347, 274.422 342.756 C 274.830 343.165, 286.377 343.653, 300.082 343.840 L 325 344.179 325.002 336.840 C 325.003 331.309, 326.112 325.347, 329.502 312.651 C 331.976 303.385, 334 295.622, 334 295.401 C 334 295.181, 336.396 295, 339.324 295 L 344.649 295 348.412 314.750 C 350.482 325.613, 352.716 336.525, 353.376 339 L 354.575 343.500 377.705 343.500 C 390.426 343.500, 401.174 343.161, 401.588 342.746 C 402.002 342.331, 401.421 340.981, 400.296 339.746 C 399.170 338.511, 397.782 336.588, 397.209 335.473 C 396.370 333.840, 389 298.329, 389 295.921 C 389 295.556, 391.315 294.951, 394.145 294.575 C 401.531 293.595, 406.605 290.694, 408.941 286.115 C 411.436 281.225, 418 255.321, 418 250.367 C 418 242.525, 411.402 233.887, 403.211 231.007 C 400.433 230.029, 387.560 229.591, 352 229.264 C 325.875 229.023, 304.189 229.138, 303.810 229.520 M 435.666 229.894 C 434.256 230.425, 429.276 240.542, 426.007 249.518 C 426.003 249.528, 433.934 249.363, 443.631 249.152 C 453.690 248.933, 461.027 249.147, 460.716 249.651 C 460.415 250.137, 455.614 268.302, 450.045 290.017 C 442.897 317.891, 438.946 331.462, 436.606 336.171 C 433.359 342.706, 433.334 342.854, 435.395 343.408 C 438.153 344.148, 479.869 344.142, 482.630 343.401 C 484.515 342.895, 484.650 342.464, 483.801 339.665 C 483.067 337.243, 483.412 334.035, 485.272 326 C 487.485 316.441, 503.550 253.300, 504.563 250.178 C 504.901 249.139, 508.153 248.933, 519.746 249.214 C 527.861 249.411, 535.255 249.929, 536.177 250.365 C 537.572 251.025, 537.956 250.431, 538.460 246.829 C 538.794 244.448, 539.164 239.575, 539.283 236 L 539.500 229.500 488.500 229.351 C 460.450 229.270, 436.675 229.514, 435.666 229.894 M 549.440 230.097 C 549.108 230.634, 549.122 232.763, 549.471 234.827 C 550.119 238.666, 548.352 246.207, 533.066 304.836 C 527.467 326.310, 524.134 336.561, 521.717 339.737 C 521.200 340.418, 521.031 341.639, 521.343 342.451 C 521.831 343.724, 528.563 343.931, 570.205 343.958 C 596.767 343.975, 618.999 343.654, 619.609 343.245 C 620.220 342.835, 622.377 338.450, 624.403 333.500 C 626.429 328.550, 628.368 323.865, 628.712 323.089 C 629.204 321.979, 628.823 321.857, 626.919 322.516 C 625.588 322.977, 612.913 323.527, 598.750 323.739 C 577.971 324.049, 573.004 323.870, 573.020 322.811 C 573.031 322.090, 574.563 315.650, 576.424 308.500 L 579.809 295.500 603.654 295.500 C 621.074 295.500, 628.097 295.842, 629.717 296.768 C 631.834 297.978, 632 297.798, 633.394 292.768 C 634.197 289.870, 635.579 284.897, 636.465 281.716 C 637.351 278.534, 637.840 275.550, 637.552 275.084 C 637.264 274.618, 635.109 274.644, 632.764 275.142 C 630.419 275.640, 618.770 275.924, 606.877 275.774 L 585.254 275.500 588.442 262.500 L 591.631 249.500 614.565 249.211 C 629.924 249.018, 638.913 249.311, 641.779 250.099 C 644.132 250.746, 646.309 251.024, 646.617 250.717 C 647.410 249.924, 649.998 230.805, 649.435 229.895 C 648.721 228.739, 550.156 228.938, 549.440 230.097 M 661.940 229.758 C 659.472 230.084, 659.394 230.304, 659.794 235.830 C 660.147 240.702, 658.538 247.970, 649.093 284.190 C 637.337 329.267, 636.090 333.488, 632.952 338.806 C 631.866 340.647, 631.234 342.569, 631.547 343.077 C 632.177 344.095, 673.886 344.373, 678.792 343.392 C 681.789 342.792, 681.826 342.708, 681.356 337.642 C 681.013 333.945, 681.734 329.128, 683.924 320.500 C 686.897 308.787, 687.094 308.381, 692.157 303.515 C 695.992 299.829, 697.482 298.917, 697.874 300.015 C 698.166 300.832, 701.576 310.950, 705.452 322.500 L 712.500 343.500 731.500 343.803 C 741.950 343.970, 752.905 343.820, 755.846 343.469 L 761.191 342.832 759.212 340.666 C 758.124 339.475, 756.506 337.059, 755.615 335.297 C 754.105 332.307, 733.019 270.311, 733.006 268.820 C 732.994 267.493, 767.404 237.875, 772.631 234.713 C 775.553 232.946, 777.956 231.208, 777.972 230.851 C 778.015 229.865, 769.908 229.350, 755.574 229.429 L 742.647 229.500 739.502 234.851 C 736.465 240.018, 732.092 244.119, 705.644 266.595 C 700.773 270.734, 696.623 273.957, 696.423 273.756 C 695.612 272.945, 704.281 243.063, 707.056 237.101 C 708.694 233.581, 709.789 230.455, 709.488 230.155 C 708.895 229.561, 666.128 229.204, 661.940 229.758 M 209.093 250.265 C 207.720 250.969, 206.085 253.219, 205.287 255.500 C 203.124 261.684, 189 317.378, 189 319.724 C 189 322.826, 193.691 324, 206.084 324 C 217.707 324, 221.322 323.188, 222.442 320.327 C 223.245 318.271, 238.445 260.242, 239.461 255.347 C 240.554 250.086, 237.814 248.997, 223.527 249.015 C 215.976 249.024, 210.604 249.489, 209.093 250.265 M 346 249.483 C 346 249.749, 344.650 254.932, 343 261 C 341.350 267.068, 340 272.737, 340 273.596 C 340 274.950, 341.747 275.115, 353.091 274.829 C 368.720 274.436, 368.625 274.503, 371.862 261.595 C 374.410 251.436, 374.356 252.499, 372.429 250.571 C 371.169 249.311, 368.394 249, 358.429 249 C 351.593 249, 346 249.217, 346 249.483 M 313.414 381.917 C 313.186 382.146, 313 384.796, 313 387.806 C 313 391.605, 312.524 393.628, 311.444 394.417 C 310.038 395.446, 310.037 395.841, 311.438 398.528 C 312.290 400.162, 312.990 402.625, 312.992 404 L 312.997 406.500 327.249 406.212 C 342.760 405.899, 345.406 405.517, 342.972 403.937 C 342.162 403.412, 335.961 403.035, 329.191 403.098 C 322.421 403.162, 316.720 403.053, 316.522 402.855 C 316.324 402.658, 315.856 401.275, 315.482 399.783 L 314.801 397.070 325.650 396.785 C 332.004 396.618, 336.293 396.111, 336 395.562 C 335.725 395.046, 331.421 394.743, 326.435 394.888 C 315.883 395.195, 314.345 394.304, 315.432 388.511 L 316.091 385 328.464 385 C 340.734 385, 344 384.568, 344 382.943 C 344 382.110, 314.214 381.111, 313.414 381.917 M 346.703 382.630 C 346.357 382.977, 348.307 385.268, 351.037 387.723 C 353.766 390.177, 356 393.002, 356 394 C 356 394.998, 353.705 397.878, 350.900 400.400 C 346.776 404.108, 346.121 405.109, 347.479 405.630 C 348.656 406.082, 350.722 404.731, 354.382 401.116 L 359.606 395.958 363.514 400.453 C 367.633 405.190, 369.530 406.409, 371.188 405.384 C 371.742 405.041, 369.805 402.340, 366.882 399.381 L 361.568 394 366.882 388.619 C 370.466 384.991, 371.806 382.998, 371 382.500 C 370.268 382.048, 367.795 383.746, 364.618 386.884 L 359.431 392.006 354.503 387.003 C 349.781 382.209, 348.079 381.255, 346.703 382.630 M 376.166 382.861 C 374.116 384.184, 377.137 385, 384.082 385 L 390 385 390 395.441 C 390 401.184, 390.403 406.131, 390.895 406.435 C 392.435 407.387, 393 404.162, 393 394.418 L 393 385 399.583 385 C 404.405 385, 406.056 384.665, 405.751 383.750 C 405.259 382.268, 378.340 381.459, 376.166 382.861 M 412.617 383.556 C 412.278 384.440, 412 386.506, 412 388.148 C 412 389.789, 411.529 392.011, 410.954 393.087 C 410.208 394.479, 410.274 396.619, 411.181 400.521 L 412.455 406 427.811 406 C 439.650 406, 443.072 405.714, 442.751 404.750 C 442.453 403.851, 438.532 403.422, 428.777 403.222 C 415.866 402.958, 415.192 402.843, 414.658 400.799 C 414.349 399.619, 414.292 398.337, 414.531 397.950 C 414.770 397.563, 419.586 397.168, 425.233 397.071 C 430.880 396.975, 435.928 396.469, 436.450 395.948 C 437.049 395.351, 433.279 395, 426.259 395 C 420.131 395, 414.897 394.642, 414.627 394.205 C 414.356 393.768, 414.388 391.530, 414.696 389.232 L 415.256 385.053 429.378 384.777 C 448.535 384.401, 447.639 382.586, 428.119 382.225 C 415.205 381.986, 413.152 382.162, 412.617 383.556 M 449.719 382.750 C 449.499 383.163, 449.392 386.145, 449.481 389.377 C 449.609 394.009, 449.239 395.631, 447.737 397.030 C 446.103 398.553, 446.044 398.927, 447.319 399.653 C 448.138 400.119, 448.963 401.590, 449.154 402.922 C 449.684 406.631, 452 406.763, 452 403.083 L 452 400 462.045 400 C 471.203 400, 472.295 400.204, 474.398 402.307 C 475.666 403.576, 476.940 405.263, 477.227 406.057 C 477.626 407.159, 478.042 407.226, 478.985 406.340 C 479.959 405.425, 479.828 404.515, 478.360 402.023 C 476.597 399.030, 476.591 398.814, 478.250 397.883 C 479.625 397.111, 480 395.562, 480 390.650 C 480 387.122, 479.477 383.877, 478.800 383.200 C 477.460 381.860, 450.415 381.442, 449.719 382.750 M 486.245 383.250 C 486.475 383.949, 488.717 384.634, 491.328 384.805 L 496 385.110 496 394 L 496 402.890 491.328 403.195 C 488.648 403.370, 486.476 404.047, 486.234 404.783 C 485.903 405.787, 488.326 406.004, 497.410 405.783 C 504.278 405.615, 509.011 405.092, 509.017 404.500 C 509.022 403.950, 506.770 403.364, 504.013 403.198 L 499 402.895 499 393.948 L 499 385 504.500 385 C 509.814 385, 511.681 383.859, 508.418 382.607 C 507.548 382.273, 502.111 382, 496.335 382 C 488.381 382, 485.933 382.303, 486.245 383.250 M 516.900 383.880 C 514.957 385.453, 514.514 386.915, 514.179 392.846 C 513.795 399.642, 513.903 400.056, 516.812 402.966 L 519.846 406 533.522 406 L 547.198 406 550.099 402.894 C 552.630 400.185, 553 399.026, 553 393.817 C 553 388.551, 552.655 387.501, 550.077 384.923 L 547.154 382 533.188 382 C 521.010 382, 518.924 382.241, 516.900 383.880 M 559.667 382.667 C 559.300 383.033, 559 386.093, 559 389.467 C 559 392.840, 558.595 396.028, 558.099 396.550 C 557.082 397.623, 558.992 407, 560.227 407 C 560.652 407, 561 405.425, 561 403.500 L 561 400 571.632 400 L 582.264 400 585.678 403.620 C 589.635 407.815, 590.688 407.544, 588.963 402.774 C 587.949 399.969, 588.005 398.891, 589.295 396.396 C 591.005 393.090, 590.769 385.632, 588.884 383.360 C 588.033 382.334, 584.384 382, 574.044 382 C 566.503 382, 560.033 382.300, 559.667 382.667 M 595.546 384.910 C 594.383 387.159, 594.280 388.504, 595.091 390.830 L 596.140 393.840 608.537 394.170 C 618.610 394.438, 621.255 394.821, 622.644 396.213 C 624.058 397.629, 624.154 398.366, 623.199 400.463 C 622.060 402.962, 621.874 403, 610.676 403 C 600.580 403, 599.108 402.777, 597.500 401 C 595.098 398.345, 593.706 398.463, 594.534 401.250 C 595.776 405.433, 597.695 406, 610.620 406 C 624.567 406, 626 405.356, 626 399.084 C 626 391.983, 623.532 391.159, 601.857 391.023 C 597.891 390.998, 596.104 388.784, 598.105 386.373 C 598.950 385.355, 602.210 385, 610.716 385 C 621.346 385, 622.226 385.147, 622.710 387 C 622.998 388.100, 623.829 389, 624.558 389 C 627.040 389, 627.214 386.857, 624.930 384.426 C 622.748 382.103, 622.108 382, 609.851 382 L 597.051 382 595.546 384.910 M 658.812 393.457 C 658.640 399.827, 658.612 405.368, 658.748 405.770 C 658.884 406.171, 664.425 406.361, 671.061 406.190 C 679.834 405.965, 683.019 405.556, 682.732 404.690 C 682.468 403.893, 678.786 403.406, 671.572 403.215 L 660.806 402.930 661.153 392.801 C 661.400 385.600, 661.156 382.556, 660.312 382.273 C 659.451 381.984, 659.037 385.066, 658.812 393.457 M 686.694 382.639 C 685.161 384.172, 687.569 385, 693.559 385 C 700.913 385, 700.283 383.881, 700.414 397.167 C 700.490 404.783, 701.186 408.259, 702.367 406.917 C 702.568 406.688, 703.010 401.775, 703.348 396 C 703.686 390.225, 703.971 385.387, 703.981 385.250 C 703.992 385.113, 706.700 385, 710 385 C 714.667 385, 716 384.667, 716 383.500 C 716 382.236, 713.741 382, 701.667 382 C 693.783 382, 687.046 382.288, 686.694 382.639 M 720.667 382.667 C 720.300 383.033, 720 388.433, 720 394.667 L 720 406 733.326 406 C 746.292 406, 746.716 405.932, 749.030 403.468 C 750.881 401.497, 751.498 399.544, 751.808 394.668 C 752.168 389.018, 751.942 388.085, 749.515 385.200 L 746.822 382 734.078 382 C 727.068 382, 721.033 382.300, 720.667 382.667 M 452 391.032 L 452 397.063 463.738 396.782 L 475.477 396.500 476.810 393.714 C 477.596 392.072, 477.876 389.712, 477.492 387.964 L 476.841 385 464.421 385 L 452 385 452 391.032 M 518.571 386.571 C 517.506 387.637, 517 390.001, 517 393.916 C 517 402.565, 517.799 403, 533.674 403 C 549.212 403, 550 402.557, 550 393.826 C 550 385.463, 549.120 385, 533.243 385 C 522.667 385, 519.840 385.303, 518.571 386.571 M 561.200 390.750 L 561.500 396.500 572.857 396.784 C 580.374 396.972, 584.685 396.677, 585.607 395.911 C 586.449 395.212, 587 392.827, 587 389.878 L 587 385 573.950 385 L 560.900 385 561.200 390.750 M 723 394 L 723 403 734.443 403 C 745.135 403, 745.989 402.854, 747.443 400.777 C 748.299 399.555, 749 396.505, 749 394 C 749 391.495, 748.299 388.445, 747.443 387.223 C 745.989 385.146, 745.135 385, 734.443 385 L 723 385 723 394 M 754.964 402.543 C 753.849 403.886, 753.851 404.290, 754.974 404.984 C 756.843 406.139, 759.159 405.064, 758.799 403.207 C 758.369 400.993, 756.517 400.672, 754.964 402.543" stroke="none" fill="#ffffff" fill-rule="evenodd"/><path d="M 481.234 34.750 L 481.500 62.500 487.500 63.167 C 498.280 64.365, 526.259 67.894, 537.424 69.464 C 543.432 70.309, 548.727 71, 549.191 71 C 549.654 71, 549.913 59.188, 549.767 44.750 L 549.500 18.500 546.500 18.180 C 544.850 18.004, 533.600 16.062, 521.500 13.865 C 489.971 8.140, 483.660 7.039, 482.234 7.018 C 481.237 7.004, 481.025 12.884, 481.234 34.750 M 562 46.791 L 562 72.804 568.250 73.499 C 571.688 73.881, 586.859 75.725, 601.963 77.597 C 617.068 79.469, 629.781 81, 630.213 81 C 631.464 81, 631.188 34.234, 629.933 33.459 C 629.346 33.096, 615.509 30.420, 599.183 27.512 C 582.857 24.604, 567.813 21.899, 565.750 21.501 L 562 20.777 562 46.791 M 642.785 59.499 C 642.942 72.425, 643.392 82.999, 643.785 82.999 C 644.178 82.998, 651.475 83.893, 660 84.987 C 684.818 88.174, 708.461 91, 710.300 91 C 711.847 91, 712 89.066, 712 69.469 C 712 53.155, 711.697 47.826, 710.750 47.478 C 708.616 46.694, 647.126 36, 644.747 35.999 L 642.500 35.998 642.785 59.499 M 481.234 105.750 L 481.500 133.500 501.500 134.665 C 512.500 135.305, 527.920 136.163, 535.767 136.571 L 550.034 137.312 549.767 111.411 L 549.500 85.511 518.500 81.821 C 501.450 79.792, 486.030 78.102, 484.234 78.066 L 480.968 78 481.234 105.750 M 562 112.481 L 562 137.962 564.250 138.436 C 566.377 138.885, 616.360 142.061, 626 142.360 L 630.500 142.500 630.792 121.500 C 630.953 109.950, 630.838 99.133, 630.537 97.463 L 629.989 94.426 603.745 91.621 C 589.310 90.078, 574.800 88.411, 571.500 87.916 C 560.930 86.329, 562 83.563, 562 112.481 M 642.393 97.582 C 642.727 98.452, 643 109.186, 643 121.436 L 643 143.708 655.750 144.467 C 697.471 146.951, 710.581 147.613, 711.250 147.268 C 712.219 146.769, 712.205 105.850, 711.235 104.407 C 710.831 103.805, 703.075 102.552, 694 101.623 C 684.925 100.693, 669.850 99.058, 660.500 97.991 C 651.150 96.923, 643.114 96.038, 642.643 96.025 C 642.172 96.011, 642.059 96.712, 642.393 97.582 M 481.234 175.770 L 481.500 203.500 515.500 203.500 L 549.500 203.500 549.767 177.250 L 550.033 151 546.193 151 C 544.081 151, 534.286 150.575, 524.426 150.055 C 514.567 149.536, 500.755 148.870, 493.734 148.575 L 480.968 148.040 481.234 175.770 M 562 178.030 L 562 204.061 596.250 203.780 L 630.500 203.500 630.500 179.500 L 630.500 155.500 601.500 153.836 C 585.550 152.921, 570.138 152.134, 567.250 152.086 L 562 152 562 178.030 M 643 179.925 L 643 204 676.883 204 L 710.767 204 711.370 201.750 C 711.701 200.512, 711.979 190.387, 711.986 179.250 L 712 159 707.750 158.994 C 701.806 158.987, 662.314 157.201, 651.750 156.462 L 643 155.850 643 179.925 M 218.287 248.740 C 221.469 248.939, 226.419 248.937, 229.287 248.736 C 232.154 248.535, 229.550 248.372, 223.500 248.374 C 217.450 248.376, 215.104 248.541, 218.287 248.740 M 354.784 248.738 C 357.689 248.941, 362.189 248.939, 364.784 248.734 C 367.378 248.528, 365 248.363, 359.500 248.365 C 354 248.368, 351.878 248.536, 354.784 248.738 M 452.250 248.716 C 453.762 248.945, 456.238 248.945, 457.750 248.716 C 459.262 248.487, 458.025 248.300, 455 248.300 C 451.975 248.300, 450.738 248.487, 452.250 248.716 M 630.750 248.706 C 631.987 248.944, 634.013 248.944, 635.250 248.706 C 636.487 248.467, 635.475 248.272, 633 248.272 C 630.525 248.272, 629.513 248.467, 630.750 248.706 M 199.750 324.740 C 203.188 324.936, 208.813 324.936, 212.250 324.740 C 215.688 324.545, 212.875 324.385, 206 324.385 C 199.125 324.385, 196.313 324.545, 199.750 324.740 M 585.250 324.747 C 591.712 324.921, 602.288 324.921, 608.750 324.747 C 615.212 324.573, 609.925 324.430, 597 324.430 C 584.075 324.430, 578.788 324.573, 585.250 324.747 M 320.784 382.738 C 323.689 382.941, 328.189 382.939, 330.784 382.734 C 333.378 382.528, 331 382.363, 325.500 382.365 C 320 382.368, 317.878 382.536, 320.784 382.738 M 376.654 382.750 C 376.400 383.163, 378.285 383.366, 380.845 383.201 C 388.148 382.732, 389.034 382.243, 382.809 382.116 C 379.679 382.052, 376.909 382.337, 376.654 382.750 M 396.250 382.716 C 397.762 382.945, 400.238 382.945, 401.750 382.716 C 403.262 382.487, 402.025 382.300, 399 382.300 C 395.975 382.300, 394.738 382.487, 396.250 382.716 M 424.776 382.733 C 427.128 382.945, 430.728 382.942, 432.776 382.727 C 434.824 382.512, 432.900 382.339, 428.500 382.343 C 424.100 382.346, 422.424 382.522, 424.776 382.733 M 458.250 382.735 C 460.863 382.941, 465.137 382.941, 467.750 382.735 C 470.363 382.529, 468.225 382.360, 463 382.360 C 457.775 382.360, 455.637 382.529, 458.250 382.735 M 489.264 382.718 C 490.784 382.947, 493.034 382.941, 494.264 382.704 C 495.494 382.467, 494.250 382.279, 491.500 382.286 C 488.750 382.294, 487.744 382.488, 489.264 382.718 M 525.292 382.742 C 529.027 382.935, 534.877 382.934, 538.292 382.739 C 541.706 382.545, 538.650 382.387, 531.500 382.389 C 524.350 382.390, 521.556 382.550, 525.292 382.742 M 567.750 382.737 C 570.638 382.939, 575.362 382.939, 578.250 382.737 C 581.138 382.535, 578.775 382.370, 573 382.370 C 567.225 382.370, 564.862 382.535, 567.750 382.737 M 611.768 382.725 C 613.565 382.947, 616.265 382.943, 617.768 382.715 C 619.271 382.486, 617.800 382.304, 614.500 382.310 C 611.200 382.315, 609.971 382.502, 611.768 382.725 M 689.728 382.722 C 691.503 382.943, 694.653 382.946, 696.728 382.730 C 698.802 382.513, 697.350 382.333, 693.500 382.328 C 689.650 382.324, 687.952 382.501, 689.728 382.722 M 707.250 382.716 C 708.763 382.945, 711.237 382.945, 712.750 382.716 C 714.263 382.487, 713.025 382.300, 710 382.300 C 706.975 382.300, 705.737 382.487, 707.250 382.716 M 726.789 382.741 C 730.248 382.937, 735.648 382.936, 738.789 382.738 C 741.930 382.540, 739.100 382.380, 732.500 382.382 C 725.900 382.384, 723.330 382.546, 726.789 382.741 M 620 384 L 616.500 384.737 619.643 384.868 C 621.417 384.943, 623.037 385.653, 623.362 386.500 C 623.678 387.325, 624.514 387.964, 625.219 387.921 C 626.222 387.859, 626.229 387.733, 625.250 387.338 C 624.563 387.060, 624 386.394, 624 385.858 C 624 385.321, 624.563 385.220, 625.250 385.633 C 626.099 386.143, 626.060 385.842, 625.128 384.692 C 624.373 383.761, 623.698 383.059, 623.628 383.132 C 623.557 383.204, 621.925 383.595, 620 384 M 334.750 384.706 C 335.988 384.944, 338.012 384.944, 339.250 384.706 C 340.488 384.467, 339.475 384.272, 337 384.272 C 334.525 384.272, 333.512 384.467, 334.750 384.706 M 351.958 388.250 C 356.102 392.665, 357 393.459, 357 392.708 C 357 392.548, 354.863 390.410, 352.250 387.958 L 347.500 383.500 351.958 388.250 M 390.168 394.191 C 390.076 400.071, 390.337 405.092, 390.750 405.349 C 391.163 405.606, 391.378 402.370, 391.229 398.158 C 390.753 384.723, 390.341 383.183, 390.168 394.191 M 451.412 385.369 C 451.123 386.122, 451.024 389.160, 451.193 392.119 L 451.500 397.500 462.500 397.549 L 473.500 397.598 462.750 397.266 L 452 396.934 452 391.037 C 452 385.716, 452.220 385.097, 454.250 384.706 L 456.500 384.272 454.219 384.136 C 452.964 384.061, 451.701 384.616, 451.412 385.369 M 493.250 384.722 C 495.551 385.066, 496.022 385.653, 496.136 388.316 C 496.252 391.017, 496.338 391.121, 496.707 389 C 496.946 387.625, 497.740 386.033, 498.470 385.463 C 499.444 384.704, 498.555 384.411, 495.150 384.368 C 492.592 384.337, 491.738 384.496, 493.250 384.722 M 573.931 384.733 C 582.977 384.960, 586.989 385.424, 587.278 386.279 C 587.506 386.950, 587.644 386.825, 587.584 386 C 587.493 384.750, 585.268 384.492, 574.236 384.455 L 560.997 384.409 573.931 384.733 M 692.768 384.725 C 694.565 384.947, 697.265 384.943, 698.768 384.715 C 700.271 384.486, 698.800 384.304, 695.500 384.310 C 692.200 384.315, 690.971 384.502, 692.768 384.725 M 722.406 385.386 C 722.113 386.148, 722.049 388.735, 722.262 391.136 L 722.651 395.500 722.825 390.316 C 722.988 385.482, 723.185 385.105, 725.750 384.716 L 728.500 384.300 725.719 384.150 C 724.154 384.066, 722.705 384.606, 722.406 385.386 M 514.272 394 C 514.272 396.475, 514.467 397.488, 514.706 396.250 C 514.944 395.012, 514.944 392.988, 514.706 391.750 C 514.467 390.512, 514.272 391.525, 514.272 394 M 552.272 394 C 552.272 396.475, 552.467 397.488, 552.706 396.250 C 552.944 395.012, 552.944 392.988, 552.706 391.750 C 552.467 390.512, 552.272 391.525, 552.272 394 M 496.286 396.500 C 496.294 399.250, 496.488 400.256, 496.718 398.736 C 496.947 397.216, 496.941 394.966, 496.704 393.736 C 496.467 392.506, 496.279 393.750, 496.286 396.500 M 351.617 399.882 C 348.041 403.512, 347.153 404.963, 348.154 405.542 C 348.894 405.970, 349.152 405.938, 348.726 405.469 C 348.300 405.001, 350.083 402.454, 352.688 399.809 C 355.293 397.164, 357.200 395, 356.925 395 C 356.650 395, 354.261 397.197, 351.617 399.882 M 585.923 396.417 C 585.109 397.303, 585.539 400.203, 586.618 401.098 C 587.775 402.058, 587.926 401.970, 587.411 400.629 C 587.062 399.719, 587.269 398.380, 587.872 397.654 C 588.697 396.661, 588.600 396.333, 587.484 396.333 C 586.668 396.333, 585.966 396.371, 585.923 396.417 M 720.398 400.500 L 720.500 405.500 733.500 405.549 L 746.500 405.597 733.804 405.269 L 721.107 404.941 720.701 400.221 L 720.296 395.500 720.398 400.500 M 566.789 397.741 C 570.248 397.937, 575.648 397.936, 578.789 397.738 C 581.930 397.540, 579.100 397.380, 572.500 397.382 C 565.900 397.384, 563.330 397.546, 566.789 397.741 M 451.558 400.250 C 450.475 403.814, 450.285 405.942, 451.093 405.442 C 451.592 405.134, 452 403.799, 452 402.476 C 452 400.112, 452.180 400.064, 462.250 399.746 L 472.500 399.422 462.219 399.211 C 454.712 399.057, 451.835 399.337, 451.558 400.250 M 565.784 399.738 C 568.689 399.941, 573.189 399.939, 575.784 399.734 C 578.378 399.528, 576 399.363, 570.500 399.365 C 565 399.368, 562.878 399.536, 565.784 399.738 M 436 405 L 429.500 405.655 436.250 405.827 C 440.198 405.928, 443 405.585, 443 405 C 443 404.450, 442.887 404.078, 442.750 404.173 C 442.613 404.268, 439.575 404.640, 436 405 M 486 405.250 C 486 405.663, 490.923 406, 496.941 406 C 502.959 406, 508.091 405.663, 508.345 405.250 C 508.600 404.837, 503.677 404.500, 497.405 404.500 C 491.132 404.500, 486 404.837, 486 405.250 M 671.500 405 L 660.500 405.605 671.191 405.802 C 677.463 405.918, 682.137 405.587, 682.500 405 C 682.840 404.450, 682.979 404.089, 682.809 404.198 C 682.639 404.306, 677.550 404.667, 671.500 405 M 324.750 405.737 C 327.637 405.939, 332.363 405.939, 335.250 405.737 C 338.137 405.535, 335.775 405.370, 330 405.370 C 324.225 405.370, 321.863 405.535, 324.750 405.737 M 417.250 405.728 C 419.313 405.944, 422.688 405.944, 424.750 405.728 C 426.813 405.513, 425.125 405.336, 421 405.336 C 416.875 405.336, 415.188 405.513, 417.250 405.728 M 529.784 405.738 C 532.689 405.941, 537.189 405.939, 539.784 405.734 C 542.378 405.528, 540 405.363, 534.500 405.365 C 529 405.368, 526.878 405.536, 529.784 405.738 M 603.750 405.740 C 607.188 405.936, 612.813 405.936, 616.250 405.740 C 619.688 405.545, 616.875 405.385, 610 405.385 C 603.125 405.385, 600.313 405.545, 603.750 405.740" stroke="none" fill="#3e831e" fill-rule="evenodd"/><path d="M 447 17.097 C 436.825 22.571, 424.788 28.939, 420.250 31.248 L 412 35.446 412 59.223 C 412 72.300, 412.164 83, 412.366 83 C 412.980 83, 466.348 62.986, 466.717 62.617 C 467.629 61.704, 467.416 7.006, 466.500 7.072 C 465.950 7.112, 457.175 11.623, 447 17.097 M 561.437 47 C 561.437 61.575, 561.577 67.537, 561.747 60.250 C 561.918 52.962, 561.918 41.037, 561.747 33.750 C 561.577 26.462, 561.437 32.425, 561.437 47 M 550.426 49.500 C 550.427 61.600, 550.571 66.413, 550.747 60.195 C 550.923 53.977, 550.922 44.077, 550.746 38.195 C 550.569 32.313, 550.425 37.400, 550.426 49.500 M 642.430 60 C 642.430 72.925, 642.573 78.213, 642.747 71.750 C 642.921 65.287, 642.921 54.712, 642.747 48.250 C 642.573 41.787, 642.430 47.075, 642.430 60 M 376.750 54.110 L 350 68.161 350 85.499 C 350 95.034, 349.727 103.548, 349.393 104.418 C 348.968 105.526, 349.368 106, 350.727 106 C 351.795 106, 364.331 101.555, 378.584 96.122 L 404.500 86.244 404.768 63.122 C 404.916 50.405, 404.691 40.013, 404.268 40.030 C 403.846 40.046, 391.462 46.382, 376.750 54.110 M 446.320 84.468 C 436.322 87.945, 424.501 92.001, 420.053 93.482 L 411.964 96.176 412.232 119.838 L 412.500 143.500 415.500 143.176 C 417.150 142.998, 423.900 141.789, 430.500 140.489 C 445.625 137.510, 457.285 135.341, 462.750 134.488 L 467 133.824 467 105.912 C 467 84.210, 466.722 78.016, 465.750 78.074 C 465.063 78.115, 456.319 80.992, 446.320 84.468 M 549.975 89.796 L 550.458 94.500 550.797 90.618 C 550.984 88.483, 550.767 86.367, 550.315 85.915 C 549.863 85.463, 549.710 87.210, 549.975 89.796 M 561.473 112.417 C 561.496 134.591, 561.717 138.393, 563 138.743 C 564.092 139.041, 564.165 138.915, 563.268 138.278 C 562.360 137.634, 561.958 130.696, 561.741 111.952 L 561.447 86.500 561.473 112.417 M 550.409 111.500 C 550.408 120.850, 550.558 124.810, 550.743 120.299 C 550.928 115.789, 550.929 108.139, 550.745 103.299 C 550.562 98.460, 550.410 102.150, 550.409 111.500 M 642.430 121 C 642.430 133.925, 642.573 139.213, 642.747 132.750 C 642.921 126.287, 642.921 115.712, 642.747 109.250 C 642.573 102.787, 642.430 108.075, 642.430 121 M 376.808 107.860 C 362.678 112.640, 350.892 116.775, 350.618 117.049 C 350.344 117.323, 350.033 125.862, 349.927 136.024 C 349.738 154.116, 349.778 154.507, 351.840 154.816 C 352.999 154.990, 360.596 153.789, 368.723 152.148 C 376.850 150.507, 387.775 148.409, 393 147.485 C 398.225 146.561, 403.063 145.638, 403.750 145.434 C 404.703 145.151, 405 139.592, 405 122.031 C 405 104.228, 404.716 99.019, 403.750 99.085 C 403.063 99.131, 390.939 103.080, 376.808 107.860 M 550.116 134.195 C 550.009 136.671, 549.614 136.921, 545.250 137.265 L 540.500 137.640 545.281 137.820 C 550.303 138.009, 551.632 136.903, 550.701 133.308 C 550.388 132.102, 550.193 132.397, 550.116 134.195 M 493.750 134.706 C 494.988 134.944, 497.012 134.944, 498.250 134.706 C 499.488 134.467, 498.475 134.272, 496 134.272 C 493.525 134.272, 492.512 134.467, 493.750 134.706 M 511.264 135.718 C 512.784 135.947, 515.034 135.941, 516.264 135.704 C 517.494 135.467, 516.250 135.279, 513.500 135.286 C 510.750 135.294, 509.744 135.488, 511.264 135.718 M 524.750 136.706 C 525.987 136.944, 528.013 136.944, 529.250 136.706 C 530.487 136.467, 529.475 136.272, 527 136.272 C 524.525 136.272, 523.513 136.467, 524.750 136.706 M 683.750 146.706 C 684.987 146.944, 687.013 146.944, 688.250 146.706 C 689.487 146.467, 688.475 146.272, 686 146.272 C 683.525 146.272, 682.513 146.467, 683.750 146.706 M 702.264 147.718 C 703.784 147.947, 706.034 147.941, 707.264 147.704 C 708.494 147.467, 707.250 147.279, 704.500 147.286 C 701.750 147.294, 700.744 147.488, 702.264 147.718 M 437.500 152.069 C 423.750 154.199, 412.379 155.955, 412.232 155.971 C 412.084 155.987, 412.084 166.688, 412.232 179.750 L 412.500 203.500 439.750 203.766 L 467 204.032 467 176.016 L 467 148 464.750 148.097 C 463.512 148.151, 451.250 149.938, 437.500 152.069 M 491.750 148.723 C 493.538 148.945, 496.462 148.945, 498.250 148.723 C 500.038 148.502, 498.575 148.320, 495 148.320 C 491.425 148.320, 489.962 148.502, 491.750 148.723 M 518.264 149.718 C 519.784 149.947, 522.034 149.941, 523.264 149.704 C 524.494 149.467, 523.250 149.279, 520.500 149.286 C 517.750 149.294, 516.744 149.488, 518.264 149.718 M 537.250 150.716 C 538.763 150.945, 541.237 150.945, 542.750 150.716 C 544.263 150.487, 543.025 150.300, 540 150.300 C 536.975 150.300, 535.737 150.487, 537.250 150.716 M 561.436 177.500 C 561.436 191.800, 561.577 197.511, 561.748 190.191 C 561.919 182.871, 561.918 171.171, 561.747 164.191 C 561.575 157.211, 561.435 163.200, 561.436 177.500 M 577.750 152.706 C 578.987 152.944, 581.013 152.944, 582.250 152.706 C 583.487 152.467, 582.475 152.272, 580 152.272 C 577.525 152.272, 576.513 152.467, 577.750 152.706 M 595.750 153.706 C 596.987 153.944, 599.013 153.944, 600.250 153.706 C 601.487 153.467, 600.475 153.272, 598 153.272 C 595.525 153.272, 594.513 153.467, 595.750 153.706 M 614.750 154.706 C 615.987 154.944, 618.013 154.944, 619.250 154.706 C 620.487 154.467, 619.475 154.272, 617 154.272 C 614.525 154.272, 613.513 154.467, 614.750 154.706 M 642.432 180 C 642.432 193.475, 642.574 198.988, 642.747 192.250 C 642.920 185.512, 642.920 174.488, 642.747 167.750 C 642.574 161.012, 642.432 166.525, 642.432 180 M 653.264 156.718 C 654.784 156.947, 657.034 156.941, 658.264 156.704 C 659.494 156.467, 658.250 156.279, 655.500 156.286 C 652.750 156.294, 651.744 156.488, 653.264 156.718 M 398 158.075 C 394.975 158.454, 383.140 160.167, 371.700 161.882 C 360.259 163.597, 350.697 165, 350.450 165 C 350.202 165, 350 173.775, 350 184.500 L 350 204 377.500 204 L 405 204 405 181.059 C 405 168.441, 404.663 157.953, 404.250 157.752 C 403.837 157.550, 401.025 157.695, 398 158.075 M 673.250 157.716 C 674.763 157.945, 677.237 157.945, 678.750 157.716 C 680.263 157.487, 679.025 157.300, 676 157.300 C 672.975 157.300, 671.737 157.487, 673.250 157.716 M 697.250 158.716 C 698.763 158.945, 701.237 158.945, 702.750 158.716 C 704.263 158.487, 703.025 158.300, 700 158.300 C 696.975 158.300, 695.737 158.487, 697.250 158.716 M 549.998 183.202 C 549.724 194.588, 549.847 203.556, 550.272 203.130 C 550.696 202.705, 550.920 193.389, 550.770 182.428 L 550.496 162.500 549.998 183.202 M 46.750 229.747 C 52.938 229.922, 63.063 229.922, 69.250 229.747 C 75.438 229.571, 70.375 229.428, 58 229.428 C 45.625 229.428, 40.563 229.571, 46.750 229.747 M 130.651 229.750 C 130.394 230.162, 133.630 230.378, 137.842 230.229 C 151.277 229.753, 152.817 229.341, 141.809 229.168 C 135.929 229.076, 130.908 229.338, 130.651 229.750 M 210.250 229.748 C 218.362 229.916, 231.637 229.916, 239.750 229.748 C 247.862 229.580, 241.225 229.442, 225 229.442 C 208.775 229.442, 202.137 229.580, 210.250 229.748 M 325.250 229.749 C 337.213 229.908, 356.788 229.908, 368.750 229.749 C 380.713 229.589, 370.925 229.459, 347 229.459 C 323.075 229.459, 313.288 229.589, 325.250 229.749 M 444.250 229.743 C 448.512 229.931, 455.488 229.931, 459.750 229.743 C 464.012 229.556, 460.525 229.402, 452 229.402 C 443.475 229.402, 439.988 229.556, 444.250 229.743 M 514.206 229.741 C 517.895 229.932, 524.195 229.934, 528.206 229.743 C 532.218 229.553, 529.200 229.396, 521.500 229.395 C 513.800 229.393, 510.518 229.549, 514.206 229.741 M 561.250 229.745 C 566.063 229.928, 573.938 229.928, 578.750 229.745 C 583.563 229.561, 579.625 229.411, 570 229.411 C 560.375 229.411, 556.438 229.561, 561.250 229.745 M 602.768 229.725 C 604.565 229.947, 607.265 229.943, 608.768 229.715 C 610.271 229.486, 608.800 229.304, 605.500 229.310 C 602.200 229.315, 600.971 229.502, 602.768 229.725 M 619.250 229.743 C 623.513 229.931, 630.487 229.931, 634.750 229.743 C 639.013 229.556, 635.525 229.402, 627 229.402 C 618.475 229.402, 614.987 229.556, 619.250 229.743 M 747.750 229.737 C 750.638 229.939, 755.362 229.939, 758.250 229.737 C 761.138 229.535, 758.775 229.370, 753 229.370 C 747.225 229.370, 744.862 229.535, 747.750 229.737 M 442.250 248.716 C 443.762 248.945, 446.238 248.945, 447.750 248.716 C 449.262 248.487, 448.025 248.300, 445 248.300 C 441.975 248.300, 440.738 248.487, 442.250 248.716 M 512.750 248.706 C 513.987 248.944, 516.013 248.944, 517.250 248.706 C 518.487 248.467, 517.475 248.272, 515 248.272 C 512.525 248.272, 511.512 248.467, 512.750 248.706 M 608.250 248.739 C 611.413 248.937, 616.587 248.937, 619.750 248.739 C 622.913 248.541, 620.325 248.378, 614 248.378 C 607.675 248.378, 605.087 248.541, 608.250 248.739 M 631.257 342 C 631.605 343.278, 635.133 343.504, 655.083 343.529 L 678.500 343.559 655.547 343.260 C 638.806 343.042, 632.358 342.628, 631.721 341.731 C 631.086 340.836, 630.959 340.910, 631.257 342 M 11.750 343.732 C 14.087 343.943, 17.912 343.943, 20.250 343.732 C 22.587 343.522, 20.675 343.349, 16 343.349 C 11.325 343.349, 9.412 343.522, 11.750 343.732 M 86.750 343.747 C 92.938 343.922, 103.063 343.922, 109.250 343.747 C 115.438 343.571, 110.375 343.428, 98 343.428 C 85.625 343.428, 80.563 343.571, 86.750 343.747 M 185.813 343.749 C 194.785 343.914, 209.185 343.914, 217.813 343.748 C 226.441 343.581, 219.100 343.446, 201.500 343.446 C 183.900 343.447, 176.841 343.583, 185.813 343.749 M 291.306 343.747 C 297.800 343.922, 308.150 343.921, 314.306 343.746 C 320.463 343.571, 315.150 343.428, 302.500 343.429 C 289.850 343.429, 284.813 343.573, 291.306 343.747 M 364.750 343.746 C 370.387 343.924, 379.613 343.924, 385.250 343.746 C 390.887 343.568, 386.275 343.422, 375 343.422 C 363.725 343.422, 359.113 343.568, 364.750 343.746 M 447.250 343.747 C 453.712 343.921, 464.288 343.921, 470.750 343.747 C 477.212 343.573, 471.925 343.430, 459 343.430 C 446.075 343.430, 440.788 343.573, 447.250 343.747 M 547.819 343.749 C 561.195 343.907, 582.795 343.907, 595.819 343.749 C 608.844 343.591, 597.900 343.462, 571.500 343.462 C 545.100 343.463, 534.444 343.592, 547.819 343.749 M 723.195 343.746 C 729.077 343.922, 738.977 343.923, 745.195 343.747 C 751.413 343.571, 746.600 343.427, 734.500 343.426 C 722.400 343.425, 717.313 343.569, 723.195 343.746 M 353.500 387 C 356.209 389.750, 358.650 392, 358.925 392 C 359.200 392, 357.209 389.750, 354.500 387 C 351.791 384.250, 349.350 382, 349.075 382 C 348.800 382, 350.791 384.250, 353.500 387 M 430.500 384 L 417.500 384.592 430.191 384.796 C 437.802 384.918, 443.129 384.600, 443.500 384 C 443.840 383.450, 443.979 383.092, 443.809 383.204 C 443.639 383.316, 437.650 383.675, 430.500 384 M 720.328 389.500 C 720.333 393.350, 720.513 394.802, 720.730 392.728 C 720.946 390.653, 720.943 387.503, 720.722 385.728 C 720.501 383.952, 720.324 385.650, 720.328 389.500 M 459.776 384.733 C 462.128 384.945, 465.728 384.942, 467.776 384.727 C 469.824 384.512, 467.900 384.339, 463.500 384.343 C 459.100 384.346, 457.424 384.522, 459.776 384.733 M 502.250 384.716 C 503.762 384.945, 506.238 384.945, 507.750 384.716 C 509.262 384.487, 508.025 384.300, 505 384.300 C 501.975 384.300, 500.738 384.487, 502.250 384.716 M 528.784 384.738 C 531.689 384.941, 536.189 384.939, 538.784 384.734 C 541.378 384.528, 539 384.363, 533.500 384.365 C 528 384.368, 525.878 384.536, 528.784 384.738 M 604.750 384.732 C 607.087 384.943, 610.913 384.943, 613.250 384.732 C 615.587 384.522, 613.675 384.349, 609 384.349 C 604.325 384.349, 602.413 384.522, 604.750 384.732 M 703.390 385.427 C 703.088 386.212, 703.041 387.900, 703.285 389.177 C 703.630 390.987, 703.758 390.798, 703.864 388.323 C 703.954 386.215, 704.588 384.993, 705.750 384.689 C 707.390 384.261, 707.388 384.225, 705.719 384.116 C 704.739 384.052, 703.691 384.642, 703.390 385.427 M 731.750 384.732 C 734.087 384.943, 737.913 384.943, 740.250 384.732 C 742.587 384.522, 740.675 384.349, 736 384.349 C 731.325 384.349, 729.413 384.522, 731.750 384.732 M 599.750 391.706 C 600.987 391.944, 603.013 391.944, 604.250 391.706 C 605.487 391.467, 604.475 391.272, 602 391.272 C 599.525 391.272, 598.513 391.467, 599.750 391.706 M 609.750 391.723 C 611.538 391.945, 614.462 391.945, 616.250 391.723 C 618.038 391.502, 616.575 391.320, 613 391.320 C 609.425 391.320, 607.962 391.502, 609.750 391.723 M 498.300 398 C 498.300 401.025, 498.487 402.262, 498.716 400.750 C 498.945 399.238, 498.945 396.762, 498.716 395.250 C 498.487 393.738, 498.300 394.975, 498.300 398 M 365.500 399 C 367.648 401.200, 369.631 403, 369.906 403 C 370.181 403, 368.648 401.200, 366.500 399 C 364.352 396.800, 362.369 395, 362.094 395 C 361.819 395, 363.352 396.800, 365.500 399 M 722.272 399 C 722.272 401.475, 722.467 402.488, 722.706 401.250 C 722.944 400.012, 722.944 397.988, 722.706 396.750 C 722.467 395.512, 722.272 396.525, 722.272 399 M 323.750 403.737 C 326.637 403.939, 331.363 403.939, 334.250 403.737 C 337.137 403.535, 334.775 403.370, 329 403.370 C 323.225 403.370, 320.863 403.535, 323.750 403.737 M 423.292 403.742 C 427.027 403.935, 432.877 403.934, 436.292 403.739 C 439.706 403.545, 436.650 403.387, 429.500 403.389 C 422.350 403.390, 419.556 403.550, 423.292 403.742 M 504.773 403.733 C 507.545 403.982, 508.808 404.502, 508.368 405.213 C 507.958 405.877, 508.153 406.024, 508.862 405.585 C 511.044 404.237, 508.902 402.999, 504.691 403.175 L 500.500 403.349 504.773 403.733 M 527.789 403.741 C 531.248 403.937, 536.648 403.936, 539.789 403.738 C 542.930 403.540, 540.100 403.380, 533.500 403.382 C 526.900 403.384, 524.330 403.546, 527.789 403.741 M 605.250 403.728 C 607.313 403.944, 610.688 403.944, 612.750 403.728 C 614.813 403.513, 613.125 403.336, 609 403.336 C 604.875 403.336, 603.188 403.513, 605.250 403.728 M 666.750 403.732 C 669.087 403.943, 672.913 403.943, 675.250 403.732 C 677.587 403.522, 675.675 403.349, 671 403.349 C 666.325 403.349, 664.413 403.522, 666.750 403.732 M 731.250 403.728 C 733.313 403.944, 736.688 403.944, 738.750 403.728 C 740.813 403.513, 739.125 403.336, 735 403.336 C 730.875 403.336, 729.188 403.513, 731.250 403.728" stroke="none" fill="#96cf47" fill-rule="evenodd"/></svg>